<?xml version="1.0" encoding="utf-8"?>
<!-- Generator: Adobe Illustrator 16.0.0, SVG Export Plug-In . SVG Version: 6.00 Build 0)  -->
<!DOCTYPE svg PUBLIC "-//W3C//DTD SVG 1.1//EN" "http://www.w3.org/Graphics/SVG/1.1/DTD/svg11.dtd">
<svg version="1.1" id="Layer_1" xmlns="http://www.w3.org/2000/svg" xmlns:xlink="http://www.w3.org/1999/xlink" x="0px" y="0px"
	 width="67.16px" height="5760px" viewBox="0 -1280 67.16 5760" enable-background="new 0 -1280 67.16 5760" xml:space="preserve">
<g id="Layer_1_1_" display="none">
	
		<linearGradient id="SVGID_1_" gradientUnits="userSpaceOnUse" x1="-831.5312" y1="1071.1006" x2="2303.8359" y2="1071.1006" gradientTransform="matrix(-4.371139e-08 -1 1 -4.371139e-08 -1038.5332 2368.4683)">
		<stop  offset="0" style="stop-color:#FFFFFF"/>
		<stop  offset="0.0057" style="stop-color:#FFFBF3"/>
		<stop  offset="0.038" style="stop-color:#FFEFC4"/>
		<stop  offset="0.0712" style="stop-color:#FEE59A"/>
		<stop  offset="0.1047" style="stop-color:#FEDD7C"/>
		<stop  offset="0.1385" style="stop-color:#FFD75B"/>
		<stop  offset="0.1726" style="stop-color:#FFD33E"/>
		<stop  offset="0.2074" style="stop-color:#FFD025"/>
		<stop  offset="0.243" style="stop-color:#FFCE10"/>
		<stop  offset="0.2809" style="stop-color:#FFCE0C"/>
		<stop  offset="0.6685" style="stop-color:#F39140"/>
		<stop  offset="0.8876" style="stop-color:#ED683C"/>
		<stop  offset="1" style="stop-color:#E93F3A"/>
	</linearGradient>
	
		<linearGradient id="SVGID_2_" gradientUnits="userSpaceOnUse" x1="-832.0312" y1="1071.1006" x2="2304.3359" y2="1071.1006" gradientTransform="matrix(-4.371139e-08 -1 1 -4.371139e-08 -1038.5332 2368.4683)">
		<stop  offset="0" style="stop-color:#FFFFFF"/>
		<stop  offset="0.0058" style="stop-color:#FFFBF3"/>
		<stop  offset="0.038" style="stop-color:#FFEEC4"/>
		<stop  offset="0.0712" style="stop-color:#FFE299"/>
		<stop  offset="0.1047" style="stop-color:#FFD97B"/>
		<stop  offset="0.1385" style="stop-color:#FFD25A"/>
		<stop  offset="0.1727" style="stop-color:#FFCE3D"/>
		<stop  offset="0.2074" style="stop-color:#FFCA25"/>
		<stop  offset="0.243" style="stop-color:#FEC816"/>
		<stop  offset="0.2809" style="stop-color:#FDC712"/>
		<stop  offset="0.6685" style="stop-color:#F39140"/>
		<stop  offset="0.8876" style="stop-color:#ED683C"/>
		<stop  offset="1" style="stop-color:#E93F3A"/>
	</linearGradient>
	
		<rect x="19.45" y="64.633" display="inline" fill="url(#SVGID_1_)" stroke="url(#SVGID_2_)" stroke-miterlimit="10" width="26.233" height="3135.367"/>
</g>
<g id="stream">
	<g>
		<g>
			
				<image overflow="visible" enable-background="new    " width="32" height="3131" xlink:href="DB199B587667AD2C.png"  transform="matrix(0.9939 0 0 1.8218 17.8071 -1224)">
			</image>
		</g>
	</g>
</g>
<g id="rocket">
	<path fill="#EB5845" stroke="#010101" stroke-width="2" stroke-miterlimit="10" d="M14.171-1232.123c0,0-5.192,3.368-8.793,7.898
		c-2.489,3.126-5.041,10.577-5.226,11.461c-0.417,1.994-0.253,8.18-0.253,8.18s5.377-7.924,6.598-9.558
		c0.884-1.183,8.452-6.902,8.452-6.902"/>
	<path fill="#EB5845" stroke="#010101" stroke-width="4" stroke-miterlimit="10" d="M3.435-611.433"/>
	<path fill="#EB5845" stroke="#010101" stroke-width="2" stroke-miterlimit="10" d="M51.221-1232.123c0,0,5.191,3.368,8.795,7.898
		c2.49,3.126,5.04,10.577,5.226,11.461c0.416,1.994,0.255,8.18,0.255,8.18s-5.382-7.924-6.597-9.558
		c-0.888-1.183-8.453-6.902-8.453-6.902"/>
	<path fill="#C5C9CD" stroke="#010101" stroke-width="2" stroke-miterlimit="10" d="M48.88-1210.77
		c1.652-6.845,2.607-14.833,2.607-23.377c0-25.325-18.657-45.853-18.657-45.853s-18.66,20.528-18.66,45.854
		c0,8.544,0.953,16.532,2.607,23.377L48.88-1210.77L48.88-1210.77z"/>
	
		<line fill="none" stroke="#010101" stroke-width="2" stroke-miterlimit="10" x1="20.919" y1="-1261.604" x2="44.739" y2="-1261.604"/>
	<path fill="#FFFFFF" stroke="#010101" stroke-width="2" stroke-miterlimit="10" d="M24.509-1242.009
		c0,4.718,3.725,8.536,8.319,8.536c4.594,0,8.317-3.818,8.317-8.536c0-4.723-3.725-8.544-8.317-8.544
		C28.234-1250.553,24.509-1246.731,24.509-1242.009z"/>
	
		<line fill="none" stroke="#010101" stroke-width="2" stroke-miterlimit="10" x1="15.166" y1="-1215.367" x2="50.489" y2="-1215.367"/>
</g>
<g id="Layer_5" display="none">
	<g id="clous" display="inline">
		<path fill="#FFFFFF" stroke="#231F20" stroke-width="2" stroke-miterlimit="10" d="M52.583,3170.775
			c-0.51,0-1.013,0.036-1.506,0.093c-2.892-6.806-9.638-11.58-17.498-11.58c-7.859,0-14.605,4.774-17.496,11.58
			c-0.496-0.054-0.996-0.093-1.506-0.093c-7.322,0-13.258,5.938-13.258,13.259c0,7.323,5.936,13.258,13.258,13.258
			c3.262,0,6.244-1.183,8.555-3.139c3,1.979,6.586,3.139,10.447,3.139c3.86,0,7.448-1.158,10.446-3.139
			c2.31,1.954,5.293,3.139,8.558,3.139c7.322,0,13.258-5.935,13.258-13.258C65.841,3176.713,59.905,3170.775,52.583,3170.775z"/>
	</g>
</g>
</svg>
